<?xml version="1.0" encoding="utf-8"?>
<!-- Generator: Adobe Illustrator 25.3.1, SVG Export Plug-In . SVG Version: 6.00 Build 0)  -->
<svg version="1.1" id="Ebene_1" xmlns="http://www.w3.org/2000/svg" xmlns:xlink="http://www.w3.org/1999/xlink" x="0px" y="0px"
	 viewBox="0 0 288.5 354.3" style="enable-background:new 0 0 288.5 354.3;" xml:space="preserve">
<style type="text/css">
	.st0{fill:none;stroke:#E52521;stroke-miterlimit:2.4142;}
	.st1{fill:none;stroke:#E52521;stroke-width:2;stroke-miterlimit:2.4142;}
	.st2{fill:none;stroke:#DB0819;stroke-width:2;stroke-miterlimit:2.4142;}
	.st3{fill:none;stroke:#DB0819;stroke-width:2;stroke-miterlimit:10;}
	.st4{fill:none;stroke:#E30613;stroke-width:2;stroke-miterlimit:2.4142;}
	.st5{fill:none;stroke:#E30613;stroke-width:2;stroke-miterlimit:10;}
	.st6{fill:none;stroke:#E52521;stroke-width:2;stroke-miterlimit:10;}
	.st7{fill:#DB0819;}
	.st8{fill-rule:evenodd;clip-rule:evenodd;fill:none;stroke:#E52521;stroke-width:2;stroke-miterlimit:2.4142;}
	.st9{fill:#FFFFFF;}
</style>
<path class="st0" d="M-5.3,104.2"/>
<path class="st1" d="M146.7,81.5"/>
<path class="st2" d="M73.3,179.7c0,0-12.1-27-15.8-29.6c-3.7-2.6-7.9-3.9-18.9-3.1c-19.3,1.8-21.4,0.2-23.3-2.8
	c-3.8-6.1,0.1-10.1-0.1-13.6c-0.2-3.5-2.5-4.9-2.5-4.9s-2.1-3.4,1.4-4.5c3.5-1.1-7.2-2-3-7.7c6.4-10.6-4.7-9.3-7.6-15
	C1.5,95.7,5,92.2,8.3,87.3c3.3-4.9,11.8-19.2,12.6-23.1c0.8-3.9,0.4-9.4,1.6-13.4c1.1-3.6,8-20.6,11.3-24.8
	c2.9-3.7,17.9-25.3,58.2-23.6"/>
<g>
	<path class="st2" d="M231.4,192.8c0,0,54.7,1,54.3,56.2c-0.3,52.5-55.7,50.3-56.9,50.3"/>
	<path class="st2" d="M233.9,248.6c15,0,55.6,24,48.8,33.9c-3.2,4.3-7.1,7.6-9.7,15.1"/>
	<path class="st2" d="M230.8,351.1c0,0,8.9,0.9,11,0.2c2.1-0.7,24.9-16.5,25.7-17.8c6.6-11.1,5.8-45.9,5.8-45.9s-3.1-10.4-41.2-12.5
		"/>
	<path class="st2" d="M252.2,248.3c-19-2-15.5,14.9-15.3,16.5c0.2,1.7,0.6,18.5,14.7,19.7c14.2,1.2,18.3,4.8,22.9-9.4
		C277.5,265.7,271.2,250.2,252.2,248.3z"/>
	<path class="st2" d="M270.8,310.6c0,0-24.8,15.3-29.4,13.7c12.2-21.1-0.7-35-1.8-36.3"/>
	<path class="st2" d="M250.7,339.1c-0.4-1.2-5.2-10.6-18.3-2.7c-13.1,7.9-1.6,13.7-0.2,14.1c1.4,0.3,11.2,0.1,15.1-2.6
		C251.4,345,251.1,340.2,250.7,339.1z"/>
	<path class="st2" d="M282.7,229.2c0,0-10.5,4.2-7.8,20.7c2.7,16.5,0.6,14.8,1.7,15.6"/>
	<path class="st2" d="M271,258.1c-4.4-5.4-12.5-19.2-8.8-24.6"/>
	<path class="st2" d="M268.5,289c0-1.1-0.8,29-8.3,33.1"/>
	<path class="st2" d="M229.1,317.2c0,0,37.6,2.4,38.6-17.6"/>
	<path class="st2" d="M228.5,306.9c0,0,29.6-0.6,43.7,4.1"/>
	<path class="st2" d="M257.2,300.2"/>
	<path class="st2" d="M280,286"/>
	<path class="st2" d="M258.5,299.5"/>
	<path class="st3" d="M280.3,249c0,0-1.7,4.4-2.5,9.5c-0.6,3.6-2.3,8.3-2.7,10.4"/>
	<path class="st2" d="M232.9,246.5"/>
	<path class="st2" d="M285.7,249"/>
	<path class="st2" d="M232.5,291.7c0.7,0.6,4.2,6.3,6.8-1.1c2.6-7.4-6-19.3-6.3-19.6c-0.2-0.3-1.9-2.4-1.9-2.4"/>
	<path class="st2" d="M228.3,324.5l13-0.2L228.3,324.5z"/>
	<path class="st2" d="M268.5,260.5"/>
	<path class="st2" d="M263.3,279.9"/>
</g>
<g>
	<path class="st1" d="M228.3,300"/>
	<path class="st1" d="M226.6,193.8"/>
	<path class="st1" d="M197.7,323.1"/>
	<path class="st1" d="M191.4,300.6"/>
	<path class="st1" d="M228.6,317.8"/>
	<path class="st1" d="M227.8,247.5"/>
</g>
<path class="st1" d="M279.5,271.2"/>
<g>
	<path class="st4" d="M233.9,193.2c0,0-54.7-1.4-56.8,53.7c-2.1,52.5,50.5,52.4,51.8,52.4"/>
	<path class="st4" d="M226.6,248.6c-15-0.7-54.4,21.7-48.1,31.8c3,4.4,6.8,7.9,9,15.6"/>
	<path class="st4" d="M230.8,351.1c0,0-12.5,0.7-14.6,0c-2.1-0.8-24.1-17.6-24.8-19c-6-11.4-3.7-46.1-3.7-46.1s3.3-10.5,41.5-10.9"
		/>
	<path class="st4" d="M210.6,247.7c17.6-1,15.2,11.9,14.4,16.1c-0.3,1.7-1.3,19.5-15.5,20.1c-14.2,0.5-18.4,2.8-22.2-11.6
		C184.7,262.8,191.5,248.8,210.6,247.7z"/>
	<path class="st4" d="M189.2,309.1c0,0,24.1,16.4,28.7,15c0,0-11.5-20.7,3.3-36.1"/>
	<path class="st4" d="M207.9,338.4c0.5-1.1,5.7-10.4,18.4-1.9c12.7,8.5,1,13.8-0.4,14.1c-1.4,0.3-11.2-0.4-15-3.3
		C207,344.3,207.4,339.6,207.9,338.4z"/>
	<path class="st4" d="M181,227.2c0,0,10.3,4.6,6.8,21c-3.5,16.3-1.3,14.8-2.4,15.6"/>
	<path class="st4" d="M191.1,256.4c4.7-5.2,13.5-18.4,10.1-24"/>
	<path class="st4" d="M192.5,287.6c0-1.1-0.5,29,6.8,33.5"/>
	<path class="st4" d="M229.1,317.2c0,0-36.3,1-36.3-19"/>
	<path class="st4" d="M228.5,306.9c0,0-26.5-1.6-40.8,2.5"/>
	<path class="st4" d="M203.2,299.3"/>
	<path class="st4" d="M181,284.1"/>
	<path class="st4" d="M201.9,298.5"/>
	<path class="st5" d="M182.1,246.8c0,0,1.7,4.7,2.3,9.7c0.5,4,2,8.3,2.3,10.4"/>
	<path class="st4" d="M229.9,246.8"/>
	<path class="st4" d="M177.1,246.9"/>
	<path class="st4" d="M231.1,268.5c0,0,0-0.3-0.3,0c-0.3,0.3-11.5,14.1-9.3,21.7c2.2,7.6,5.9,2.8,5.9,2.8s1.8-2.1,3.3-2.1
		c1.5,0,3.4,2.5,3.4,2.4"/>
	<path class="st4" d="M228.3,324.5l-10.4-0.4L228.3,324.5z"/>
	<path class="st4" d="M193.8,259.1"/>
	<path class="st4" d="M198.1,278.7"/>
</g>
<g>
	<path class="st1" d="M146.3,235"/>
	<path class="st1" d="M144.6,128.8"/>
	<path class="st1" d="M115.7,258.1"/>
	<path class="st1" d="M109.4,235.6"/>
	<path class="st1" d="M146.6,252.8"/>
	<path class="st1" d="M145.8,182.5"/>
</g>
<path class="st1" d="M197.5,262.2"/>
<path class="st6" d="M226.6,289.8"/>
<rect x="71.7" y="76.6" class="st7" width="160" height="160"/>
<path class="st8" d="M44.4,140.5"/>
<path class="st8" d="M22.6,130.4"/>
<g>
	<path class="st9" d="M100.3,213.6c3.4,2.1,8.2,3.8,13.4,3.8c7.7,0,12.2-4,12.2-9.9c0-5.4-3.2-8.6-11-11.5
		c-9.5-3.4-15.4-8.4-15.4-16.5c0-9,7.5-15.8,18.8-15.8c5.9,0,10.3,1.4,12.8,2.8l-2.1,6.2c-1.9-1.1-5.7-2.8-11-2.8
		c-8,0-11,4.7-11,8.7c0,5.4,3.5,8.1,11.6,11.2c9.9,3.9,14.8,8.6,14.8,17.1c0,8.9-6.6,16.8-20.3,16.8c-5.6,0-11.7-1.7-14.8-3.8
		L100.3,213.6z"/>
</g>
<g>
	<path class="st9" d="M167.9,89.6h7.7v28.9h0.3c1.6-2.3,3.2-4.4,4.7-6.4L199,89.6h9.6l-21.7,25.5l23.4,34.5h-9.2l-19.7-29.5
		l-5.8,6.6v22.9h-7.7V89.6z"/>
</g>
<g>
	<path class="st9" d="M212.8,220.4c-3.4,1.3-10.2,3.2-18.1,3.2c-8.9,0-16.3-2.3-22-7.8c-5.1-4.9-8.2-12.7-8.2-21.8
		c0-17.5,12.1-30.4,31.8-30.4c6.8,0,12.2,1.5,14.7,2.7l-1.9,6.2c-3.1-1.4-7.1-2.5-13-2.5c-14.3,0-23.6,8.9-23.6,23.6
		c0,14.9,8.9,23.7,22.7,23.7c5,0,8.3-0.7,10.1-1.6v-17.5h-11.9v-6.1h19.4V220.4z"/>
</g>
<g>
	<path class="st9" d="M138.7,146.3c-3.4,1.3-10.2,3.2-18.1,3.2c-8.9,0-16.3-2.3-22-7.8c-5.1-4.9-8.2-12.7-8.2-21.8
		c0-17.5,12.1-30.4,31.8-30.4c6.8,0,12.2,1.5,14.7,2.7l-1.9,6.2c-3.1-1.4-7.1-2.5-13-2.5c-14.3,0-23.6,8.9-23.6,23.6
		c0,14.9,8.9,23.7,22.7,23.7c5,0,8.3-0.7,10.1-1.6v-17.5h-11.9v-6.1h19.4V146.3z"/>
</g>
</svg>
